<svg id="圖層_1" data-name="圖層 1" xmlns="http://www.w3.org/2000/svg" viewBox="0 0 1708.13 385"><defs><style>.cls-1{fill:#fff;}.cls-2{fill:none;stroke:#fff;stroke-miterlimit:10;stroke-width:22px;}</style></defs><title>logo-v2</title><path class="cls-1" d="M158.27,399.55l3.25-11.83H215c8-29.25,18.14-65.89,21.16-76.41,3.81-18.29,12.39-17.05,12.39-17.05H266.2s8.58-1.24,12.39,17.05c3,10.52,13.12,47.16,21.16,76.41h89.52L380.71,358H331.24l-3.1-11.86h49.15l-16.76-57.87s-5.08-13.26,2.54-34.88c7-21.62,39.39-108.39,39.39-108.39H311L281,246.44s-0.48,11.65-12.39,12.89H246.19c-11.91-1.24-12.39-12.89-12.39-12.89L203.78,145H112.31s32.39,86.77,39.38,108.39c7.62,21.62,2.54,34.88,2.54,34.88l-17.63,60.89L114.22,426.9h90s3.15-11.5,7.5-27.33h-53.5v0Z" transform="translate(-64.89 -91)"/><path class="cls-1" d="M310.51,426.9h90l-7.87-27.33H303C307.36,415.4,310.51,426.9,310.51,426.9Z" transform="translate(-64.89 -91)"/><rect class="cls-2" x="11" y="11" width="363" height="363"/><path class="cls-1" d="M1668.71,337h-13.17v85.8h13.17V337Z" transform="translate(-64.89 -91)"/><path class="cls-1" d="M1480.56,337h-13.18v49.35c0,7.57,1.12,14,3.65,19.35a28.49,28.49,0,0,0,10.38,13.18,30.46,30.46,0,0,0,10.1,4.77,46.35,46.35,0,0,0,12.9,1.68,45.81,45.81,0,0,0,12.62-1.68,30.52,30.52,0,0,0,10.09-4.77,28.48,28.48,0,0,0,10.38-13.18c2.52-5.33,3.65-11.78,3.65-19.35V337h-12.9v49.35c0,8.69-2,15.42-6.17,19.62q-5.88,6.74-17.67,6.73c-8.14,0-14-2.24-17.95-6.73-4.21-4.2-5.89-10.94-5.89-19.62V337Z" transform="translate(-64.89 -91)"/><path class="cls-1" d="M1378.49,350.15h32.8v72.62h13.18V350.15H1457V337h-78.52v13.18Z" transform="translate(-64.89 -91)"/><path class="cls-1" d="M1365.59,350.15V337h-44.86a35.65,35.65,0,0,0-9.53,1.12,24.19,24.19,0,0,0-7.86,3.08c-3.36,2-6.16,4.49-7.57,7.86A22.61,22.61,0,0,0,1293,360a25.91,25.91,0,0,0,2.53,10.65c1.68,3.08,3.64,5.89,7,7.85,5.33,3.65,12.05,5.33,19.91,5.33h18.23c4.76,0,8.69,1.12,11.22,3.08a10.12,10.12,0,0,1,3.93,8.41,26.68,26.68,0,0,1-1.12,7.29,11.27,11.27,0,0,1-3.65,4.48,15.42,15.42,0,0,1-4.77,1.68,46.91,46.91,0,0,1-7,.56h-43.74v13.46h43.74c9.82,0,17.39-2.52,22.16-7,5-4.49,7.29-11.21,7.29-20.47a27.55,27.55,0,0,0-2.24-11.21,21.08,21.08,0,0,0-7.57-8.13,28.3,28.3,0,0,0-8.41-3.65,27.75,27.75,0,0,0-9.81-1.4h-18.23a25.42,25.42,0,0,1-7-.84c-2.24-.56-3.93-1.12-5.33-2.53a15.91,15.91,0,0,1-3.08-3.08,10.75,10.75,0,0,1-.84-4.48,8.91,8.91,0,0,1,3.65-7.29q3.79-2.52,10.94-2.52h44.86Z" transform="translate(-64.89 -91)"/><path class="cls-1" d="M1177.72,337h-14.86v85.8H1176V356.31l46,66.46h12.62V337h-13.18v63.37Z" transform="translate(-64.89 -91)"/><path class="cls-1" d="M1150,337H1116c-11.5,0-20.47,2-26.36,6.17a30.6,30.6,0,0,0-10.38,14.29c-2.52,5.89-3.64,13.46-3.64,22.15,0,9,1.12,16.54,3.64,22.44a28.45,28.45,0,0,0,10.38,14,29.51,29.51,0,0,0,11.22,5,60.75,60.75,0,0,0,15.14,1.69h35.05V397.53c0-8.41-2-14.86-6.17-18.8-3.92-4.2-10.37-6.16-18.22-6.16H1111v12.9h15.7a13.61,13.61,0,0,1,5,.84,6.38,6.38,0,0,1,3.64,1.68c1.68,1.68,2.52,4.77,2.52,9.54v11.78H1116a65.37,65.37,0,0,1-11.22-.84c-3.08-.56-5.61-1.4-7.29-2.81a22.43,22.43,0,0,1-6.73-9.53c-1.4-4.49-2-9.81-2-16.54,0-6.45.56-11.5,2-16,1.68-4.48,3.93-7.57,6.73-9.53,1.68-1.4,4.21-2.24,7.29-2.81a44.75,44.75,0,0,1,11.22-1.12H1150V337Z" transform="translate(-64.89 -91)"/><path class="cls-1" d="M1053.22,337h-12.9v85.8h12.9V337Z" transform="translate(-64.89 -91)"/><path class="cls-1" d="M944.7,349A22.48,22.48,0,0,0,942.18,360a25.82,25.82,0,0,0,2.24,10.65c1.69,3.08,3.65,5.89,7,7.85,5.33,3.65,11.78,5.33,19.91,5.33h18.23c4.77,0,8.69,1.12,11.22,3.08a10.13,10.13,0,0,1,3.92,8.41,26.62,26.62,0,0,1-1.12,7.29,11.32,11.32,0,0,1-3.65,4.48,15.45,15.45,0,0,1-4.77,1.68,47,47,0,0,1-7,.56H944.42v13.46h43.75c9.81,0,17.1-2.52,22.15-7,4.77-4.49,7.57-11.21,7.57-20.47a23.7,23.7,0,0,0-2.8-11.21,18.55,18.55,0,0,0-7.29-8.13,33.73,33.73,0,0,0-18.22-5H971.34a25.44,25.44,0,0,1-7-.84c-2.24-.56-3.93-1.12-5.33-2.53a7.23,7.23,0,0,1-2.81-3.08,7.65,7.65,0,0,1-1.12-4.48,8.23,8.23,0,0,1,3.64-7.29c2.52-1.68,5.89-2.52,10.94-2.52h44.87V337H969.66a32.3,32.3,0,0,0-9.25,1.12,25.71,25.71,0,0,0-8.13,3.08A18.61,18.61,0,0,0,944.7,349Z" transform="translate(-64.89 -91)"/><path class="cls-1" d="M930.12,350.15V337H863.39v48.79c0,13.46,2.52,23.27,7.57,28.61a20.31,20.31,0,0,0,10.37,6.17,54.34,54.34,0,0,0,16.27,2.24h32.53V409.31H897.6a36.78,36.78,0,0,1-10.38-1.12c-2.8-.84-5-2-6.45-3.93-1.69-1.68-2.53-3.93-3.09-7.29a49.18,49.18,0,0,1-1.4-12.06H927V372H876.28V350.15h53.84Z" transform="translate(-64.89 -91)"/><path class="cls-1" d="M705.8,350.15h53.84V337h-67v48.79c0,13.46,2.8,23.27,7.57,28.61a21.22,21.22,0,0,0,10.66,6.17,52.37,52.37,0,0,0,16,2.24h32.81V409.31H727.1a38.91,38.91,0,0,1-10.66-1.12c-2.8-.84-5-2-6.45-3.93-1.4-1.68-2.24-3.93-3.08-7.29a70.74,70.74,0,0,1-1.12-12.06h50.47V372H705.8V350.15Z" transform="translate(-64.89 -91)"/><path class="cls-1" d="M680.28,337H667.1v49.35c0,8.69-2,15.42-5.89,19.62-4.21,4.49-10.09,6.73-17.94,6.73s-13.74-2.24-17.95-6.73c-3.92-4.2-5.89-10.94-5.89-19.62V337H606.25v49.35a49.66,49.66,0,0,0,3.64,19.35,30.5,30.5,0,0,0,20.47,17.95,46.4,46.4,0,0,0,12.9,1.68,43,43,0,0,0,12.62-1.68,34.94,34.94,0,0,0,10.38-4.77,30.33,30.33,0,0,0,10.37-13.18c2.53-5.33,3.65-11.78,3.65-19.35V337Z" transform="translate(-64.89 -91)"/><path class="cls-1" d="M529.14,337H512.6l31.13,39.82-35.61,46h16.54l27.48-35,27.2,35h16.54l-35.61-46L591.39,337H574.85l-22.71,29.16Z" transform="translate(-64.89 -91)"/><path class="cls-1" d="M841.23,347.62C834.5,340.33,824.41,337,811,337H771.41v13.2h12.9v0H811a60.25,60.25,0,0,1,10.94,1.12,22.68,22.68,0,0,1,7.85,3.64c2.8,2,5,5.33,6.45,9.54a46.56,46.56,0,0,1,2.25,15.14A48.38,48.38,0,0,1,836.18,395c-1.68,4.21-3.64,7.58-6.73,9.82-3.92,3.08-10.09,4.49-18.5,4.49H784.31V360.78h-12.9v62H811c13.46,0,23.55-3.92,30.28-10.93,7-7,10.37-18,10.37-32.25C851.61,365.57,848.24,354.91,841.23,347.62Z" transform="translate(-64.89 -91)"/><path class="cls-1" d="M1623,347.62c-7-7.29-16.82-10.66-30.28-10.66H1552.9v13.2h13.18v0h26.64a54.37,54.37,0,0,1,10.66,1.12,20.51,20.51,0,0,1,7.85,3.64c2.81,2,5.05,5.33,6.45,9.54,1.68,3.92,2.24,9.25,2.24,15.14,0,6.17-.56,11.22-2.24,15.42s-3.65,7.58-6.45,9.82c-4.2,3.08-10.37,4.49-18.51,4.49h-26.64V360.78H1552.9v62h39.82c13.46,0,23.27-3.92,30.28-10.93,6.73-7,10.1-18,10.1-32.25Q1633.1,358.56,1623,347.62Z" transform="translate(-64.89 -91)"/><path class="cls-1" d="M1770.22,362.48a44.72,44.72,0,0,0-9-14.85,45.7,45.7,0,0,0-13.46-10.1,38.29,38.29,0,0,0-31.4,0,45.8,45.8,0,0,0-13.46,10.1,54.57,54.57,0,0,0-3.69,4.77l11.25,6.59a25.6,25.6,0,0,1,1.69-2.1,29.78,29.78,0,0,1,9.26-7,24.34,24.34,0,0,1,21.59,0,29,29,0,0,1,9,7,36.68,36.68,0,0,1,6.17,10.65,39.84,39.84,0,0,1,0,24.68,35.24,35.24,0,0,1-6.17,10.38,30.34,30.34,0,0,1-9,7.29,27.05,27.05,0,0,1-21.59,0,31.06,31.06,0,0,1-9.26-7.29,30,30,0,0,1-6.17-10.38,42,42,0,0,1-2-12.34,40.49,40.49,0,0,1,1.22-9.64l-11.6-6.86a48.59,48.59,0,0,0-2.52,16.22,50.93,50.93,0,0,0,2.8,17.67,43.76,43.76,0,0,0,9,14.58c7.86,9,17.67,13.45,29.17,13.45s21-4.48,29.16-13.45a43.5,43.5,0,0,0,9-14.58,50.78,50.78,0,0,0,2.8-17.67A47.63,47.63,0,0,0,1770.22,362.48Z" transform="translate(-64.89 -91)"/><path class="cls-1" d="M1316.73,279V172.12h-59.21V154.34h138.39v17.78h-61V279h66.9v17.78H1250.19V279h66.54Z" transform="translate(-64.89 -91)"/><path class="cls-1" d="M1430.36,217.75V195.58c13.93-11.73,24.38-28.41,31.71-49.86h17.41a163,163,0,0,1-14.3,34.28V306.29H1448V203.09A101.13,101.13,0,0,1,1430.36,217.75Zm88.9-72q-2.2,8.8-5,16.5h72v17.23h-55.17v24.74h53.34v17h-53.34v25.11h53.52v16.87h-53.52v43.44h-17.23V179.45h-6.41c-8.43,17.41-19.06,31.16-31.89,41.06V198c11.73-12.46,20.52-29.87,26.57-52.24h17.05Z" transform="translate(-64.89 -91)"/><path class="cls-1" d="M1701.44,269.26h59.76V252.4h-59.76v-13h29.7c9.16,0,14.12-4.4,15-13.38V212.26h-18.51v11.37h-70l14.85-18h82.12v-7.34h9.71c1.84-4.77,3.12-12.1,3.49-21.81-0.19-10.64-7.89-16.68-22.92-18.51h-43.44V145.17h-18.51V158l-64.34-.19,0.19,40.14h10.81v7.7h20.71l-13.93,18.51a15.19,15.19,0,0,0-1.84,7q1.1,8.26,9.35,8.25h39.41v13h-59.76v16.86h59.76v14.3h-65.44v17.23h149.56V283.56h-66v-14.3ZM1636.19,189V173.77H1740.3c6.23,0,9.53,2.2,9.53,6.6a45.93,45.93,0,0,1-1.47,8.61H1636.19Z" transform="translate(-64.89 -91)"/><polygon class="cls-1" points="1050.76 170.15 1031.47 170.15 1031.47 170.2 1021.81 170.2 1021.81 170.21 1050.76 170.21 1050.76 170.15"/><polygon class="cls-1" points="1120.61 105.13 1120.61 53.99 1102.65 53.99 1102.65 105.13 1070.39 105.13 1070.39 122.91 1102.65 122.91 1102.65 215.1 1120.61 215.1 1120.61 122.91 1155.07 122.91 1155.07 105.13 1120.61 105.13"/><path class="cls-1" d="M1110,247.31c-0.27,0-.53,0-0.8,0h-38.49v13.95h15.95v0h9.66v0h19.29v13.63h0c-0.24,7.45-3.32,11.56-9.12,12.44h-19.8V265.56h-15.95v36.14h37.76a23.79,23.79,0,0,0,16.68-8.06c4.05-4.93,6.22-11.23,6.38-18.87h0V274.4c0-.19,0-0.37,0-0.56s0-.17,0-0.26l0.05-26.27H1110Z" transform="translate(-64.89 -91)"/><rect class="cls-1" x="1004.59" y="108.8" width="59.57" height="15.76"/><rect class="cls-1" x="1004.22" y="132.62" width="59.57" height="15.76"/><rect class="cls-1" x="1000.19" y="84.42" width="69.28" height="15.94"/><rect class="cls-1" x="1005.5" y="60.59" width="58.84" height="15.76"/><rect class="cls-1" x="824.79" y="60.27" width="55.72" height="15.58"/><rect class="cls-1" x="820.02" y="86.11" width="64.34" height="15.4"/><rect class="cls-1" x="823.5" y="134.5" width="57" height="15.76"/><path class="cls-1" d="M1027.51,199.65c-4.94-.18-7.51-1.28-7.7-3.48V166.85c-0.74-9.9-6.6-15.58-17.6-16.86H959.88c-1.11,29.51-3.48,52.24-7.51,68H969c3.67-15.4,5.5-32.81,5.5-51.87h25.85c1.65,0.55,2.57,2.2,2.57,5.13v30.61q3.3,13.2,17,14.3h19.8v-16.5h-12.29Z" transform="translate(-64.89 -91)"/><path class="cls-1" d="M1008.45,276.28c13.74-14.3,20.71-26.22,20.71-35.75q0-12.1-11-14.85H952.91V242h53.52c1.47,0,2.2.55,2.2,1.47,0,5.86-5.32,13.93-15.58,24l-1.65,1.65a54.6,54.6,0,0,1-18.14-22.36H956.39a64.75,64.75,0,0,0,20.89,32.44c-7.15,3.66-15.95,6.78-26.39,9.72v18.15a133.32,133.32,0,0,0,40.88-17.59c12.46,7.33,28.22,12.83,47.29,16.86V288.19c-12.46-2.38-23.28-5.68-32.63-10.08A18.21,18.21,0,0,0,1008.45,276.28Z" transform="translate(-64.89 -91)"/><rect class="cls-1" x="823.87" y="110.13" width="56.45" height="15.76"/><path class="cls-1" d="M926.39,249.37c-0.26,0-.52,0-0.79,0H888.94v13.42h15.58v0h27.13v13c0,8.25-2.93,12.83-8.43,13.75H904.52V267.09H888.94v37H925a20.85,20.85,0,0,0,15.58-8.07c3.82-5,5.77-11.27,6-18.78v-28H926.37Z" transform="translate(-64.89 -91)"/><polygon class="cls-1" points="770.07 157.64 752.49 157.64 739.61 157.64 726.64 157.64 726.64 157.71 770.07 157.71 770.07 157.64"/><path class="cls-1" d="M771.55,191.09V174h-31.9c2.39-8.07,5.14-16.86,8.44-26.58l-18.52-.18c-2.93,9.53-5.5,18.52-8.06,26.76H698.42v17h18c-9.17,31-13.75,47.47-13.75,49.31,0,7.7,7,16.86,21.26,27.5l0.74,0.73a83.73,83.73,0,0,1-25.29,20.53v19.06A96.76,96.76,0,0,0,738,280c8.8,7.33,18.7,15,29.7,23.46V279.62c-7.51-5.13-14.11-9.9-19.61-14.3q16.21-28.87,17.6-74.23h5.86Zm-37.21,63.24c-9-7.7-13.38-13.2-13.38-16.5,0-2.56,4.4-18.15,13.38-46.74h15.39Q748.09,229,734.34,254.33Z" transform="translate(-64.89 -91)"/><path class="cls-1" d="M834.3,178.07V200.8c0,4.4-1.86,7-5.23,7.33H794.91c-2.42,0-3.54-1.28-3.54-3.48L819,147.28H798.64l-27.44,59.39a30.72,30.72,0,0,0-1.3,7.87c1.68,6.78,5,10.27,9.89,10.45h53.76c11-1.1,16.8-6.6,17.55-16.5V178.07H834.3Z" transform="translate(-64.89 -91)"/><path class="cls-1" d="M774.85,233.25v15.46h16.68v-0.06H835v18s0,0.08,0,.13c-0.55,12.65-5.68,19.8-15.21,21.45H791.53V253.05H774.85v51.12h49.31a23.9,23.9,0,0,0,19.06-10.44c5-6.06,7.7-14.21,7.85-24.58h0v-35.9H774.85Z" transform="translate(-64.89 -91)"/><rect class="cls-1" x="506.83" y="141.05" width="19.06" height="0.01"/><path class="cls-1" d="M627.44,248.73H607.28V236.3h-16.5v12.43H571.17c0.33-3.94.49-8.07,0.52-12.43H555.95c0,4.52-.21,8.64-0.54,12.43H535.24v15.4h18.14c-2.38,11.73-6.6,19.24-12.83,22.54V305c14.66-4.77,24.2-18.15,28.59-40.87h21.63v38.49h16.5V264.13h20.16v-15.4Z" transform="translate(-64.89 -91)"/><polygon class="cls-1" points="506.83 141.05 525.9 141.05 525.9 141.06 542.39 141.06 542.39 141.05 559.44 141.05 559.44 126.21 474.57 126.21 474.57 141.05 491.07 141.05 491.07 141.06 506.83 141.06 506.83 141.05"/><path class="cls-1" d="M554.67,148.84H506.28L506.1,306.66h17L523.33,208H578.2V148.84H554.67ZM562.4,195H523.33v-9.9H562.4V195Zm0-23.1H523.33V162H562.4v9.9Z" transform="translate(-64.89 -91)"/><path class="cls-1" d="M656.89,221.67h-0.08V148.84H584.73v59.75h54.07c0.18,6.6.36,13.38,0.36,20.35,0,27.86-.73,43.25-2,46.19-2,8.8-5.5,13.2-10.26,13.2H615v16.13h18.88c4.4-.37,8.8-3.48,12.83-9.16a35.54,35.54,0,0,0,7-16.49q3.3-18.15,3.3-51.69C657,225.28,656.91,223.48,656.89,221.67ZM638,195H598.9v-9.9H638V195Zm0-23.1H598.9V162H638v9.9Z" transform="translate(-64.89 -91)"/></svg>